<svg id="Layer_1" data-name="Layer 1" xmlns="http://www.w3.org/2000/svg" xmlns:xlink="http://www.w3.org/1999/xlink" viewBox="0 0 640 360"><defs><style>.cls-1{fill:url(#radial-gradient);}.cls-2{fill:#fffc8a;}.cls-3{fill:url(#radial-gradient-2);}.cls-4{fill:#520b17;}.cls-5{fill:#ff9cd2;}.cls-6{fill:#ff8da3;}.cls-7{fill:#c15d6e;}.cls-8{fill:#d8597a;}.cls-9{fill:#ffaecb;}.cls-10{fill:#fa5;}.cls-11{fill:#ffae71;}.cls-12{fill:#ffc28f;}.cls-13{fill:#fff;}.cls-14{fill:#ff78af;}.cls-15{fill:#87132c;}.cls-16,.cls-17{fill:none;stroke:#87132c;stroke-miterlimit:10;}.cls-16{stroke-width:3px;}</style><radialGradient id="radial-gradient" cx="320.5" cy="185" fy="275.63799048955894" r="388.7" gradientUnits="userSpaceOnUse"><stop offset="0" stop-color="#fffc8a"/><stop offset="0.29" stop-color="#ffa567"/><stop offset="1" stop-color="#ff3b79"/></radialGradient><radialGradient id="radial-gradient-2" cx="316.5" cy="315" fx="329.70885854632905" fy="201.67028496157332" r="191.53" gradientUnits="userSpaceOnUse"><stop offset="0" stop-color="#fffc8a"/><stop offset="0.45" stop-color="#ffa567"/><stop offset="0.96" stop-color="#ff3b79"/></radialGradient></defs><title>IslandSunset</title><rect id="Sky" class="cls-1" x="-10" y="-1" width="661" height="372"/><circle id="Sun" class="cls-2" cx="326" cy="259" r="54"/><rect id="Water" class="cls-3" x="-7" y="259" width="647" height="112"/><path id="Sunlight" class="cls-2" d="M270.79,259s20.26,2.14,12.11,6c-5.42,2.57,16.17.26,17.1,7,.73,5.27-24.56,0-22.56,5s26.09.19,26,9.69c0,4.12-13.48,3.24-12.48,6.24S325.78,297,324.78,302s-21.38,3.49-16.52,8.52c18.89,3.53,17.74,16,17.74,16L351,330s-11.23-12.08-10.23-18.08,23.85-5.67,24-9.8S341,299,345,295s35,1,34-3-34-3-34-7,35.05-.1,37.05-6.1S343,272,343,269s25,0,25-2-8-1-9-3,21-1.09,21-5S270.79,259,270.79,259Z"/><path id="Island" class="cls-4" d="M-16.29,281s42-27.29,121-22.05,188,97.64,551,77.69c-9,76.64-15,76.64-15,76.64l-651-4.2Z"/><path class="cls-5" d="M645.14,232.26s-26.89-17.6-55.13-3.7c-31.91-20-85.43-8.45-97,0s-56.1,5.29-89.87,7.78-10.9,6.4-10.9,6.4,262.12,9.8,260.08,0S645.14,232.26,645.14,232.26Z"/><path class="cls-6" d="M197.89,192.16s-26.89-17.6-55.13-3.7c-31.91-20-85.43-8.46-97,0s-56.1,5.28-89.87,7.77S-55,202.64-55,202.64s262.12,9.8,260.08,0S197.89,192.16,197.89,192.16Z"/><path class="cls-7" d="M574,204c0,11.6-21.49,21-48,21a93.9,93.9,0,0,1-28.74-4.18,30,30,0,0,1-40.81-10.12,37.07,37.07,0,0,1-35,7.13c-7.78,4.4-19.22,7.17-32,7.17C366,225,347,215.6,347,204s19-21,42.5-21c2,0,4.05.07,6,.21,0-.24,0-.47,0-.71A37,37,0,0,1,467,169a30,30,0,0,1,43,15.16,104.56,104.56,0,0,1,16-1.2C552.51,183,574,192.4,574,204Z"/><path class="cls-8" d="M254,135.5c0,15.24-17.68,27.6-39.5,27.6A52.12,52.12,0,0,1,193,158.66,32,32,0,0,1,159.78,153,83.24,83.24,0,0,1,141,155c-22.09,0-40-7.84-40-17.5S118.91,120,141,120a87.38,87.38,0,0,1,9.15.47,32,32,0,0,1,55.51-11.87,55.34,55.34,0,0,1,8.84-.7C236.32,107.9,254,120.26,254,135.5Z"/><path class="cls-8" d="M584,62.5c0,8-13,14.5-29,14.5-8,0-15.26-1.62-20.51-4.25h0a34,34,0,0,1-37.25-2.83,15.46,15.46,0,0,1-1.71,3c-6.78,9.41-22.81,9.44-35.8.08L459,72.5c-5.28,2.78-12.73,4.5-21,4.5-16,0-29-6.49-29-14.5S422,48,438,48a56.24,56.24,0,0,1,7.47.49,16.37,16.37,0,0,1,3-9.45c6.77-9.4,22.78-9.44,35.76-.11a34,34,0,1,1,67.38,9.17c1.11-.07,2.24-.1,3.38-.1C571,48,584,54.49,584,62.5Z"/><path class="cls-4" d="M85,291a72.92,72.92,0,0,1-5.43-10.25C78,277.23,76.63,273.63,75.4,270s-2.27-7.34-3.2-11.06c-.48-1.86-.87-3.74-1.29-5.62s-.73-3.77-1.06-5.66a167.8,167.8,0,0,1-1.24-46.1,152.34,152.34,0,0,1,11.92-44.81c.4-.88.76-1.78,1.18-2.65l1.3-2.61c.89-1.72,1.73-3.46,2.69-5.15,2-3.35,3.87-6.7,6.13-9.86,1.13-1.58,2.19-3.17,3.38-4.7s2.41-3,3.68-4.49c.63-.73,1.22-1.48,1.89-2.18l2-2.09c1.38-1.37,2.74-2.73,4.2-4-3.53,15.11-7.33,29-10,43.06l-1,5.24L95,172.55c-.36,1.73-.6,3.49-.9,5.23l-.43,2.62c-.16.87-.31,1.73-.43,2.61-1.1,7-2,14-2.81,21-1.59,14-2.6,28.19-3.4,42.6l-.55,10.86-.47,11C85.7,275.83,85.44,283.25,85,291Z"/><path class="cls-4" d="M108,120a26.63,26.63,0,0,1,6.9-1.76,40,40,0,0,1,7.09-.33,47.23,47.23,0,0,1,14.06,2.72,51.92,51.92,0,0,1,23.64,17.17,55.46,55.46,0,0,1,11.08,40.73,68.33,68.33,0,0,1-1.35,6.84A47.94,47.94,0,0,1,167,192a64.2,64.2,0,0,1-3.14-6.17c-.53-1-1-2-1.46-3s-.85-2-1.35-2.92c-1.87-3.83-3.57-7.52-5.41-11a120.45,120.45,0,0,0-11.74-18.88,97,97,0,0,0-15.29-15.62c-3-2.42-6.11-4.86-9.54-7.2S112,122.52,108,120Z"/><path class="cls-4" d="M104.5,118.5c-2.11-.24-4.06-.51-6-.8L93,116.86c-3.58-.58-7-1.06-10.3-1.52s-6.43-.79-9.45-1a79.36,79.36,0,0,0-8.69-.1,59.4,59.4,0,0,0-8.23.94,72.74,72.74,0,0,0-8.38,2.28l-2.18.85c-.37.14-.76.26-1.13.42l-1.11.5c-.74.33-1.53.64-2.32,1l-2.34,1.14-1.23.56c-.4.2-.78.43-1.19.63-.83.42-1.64.86-2.53,1.27-1.7.87-3.4,1.83-5.4,2.68a31.51,31.51,0,0,1,1-6.14c.28-1,.63-1.94,1-2.92.17-.5.36-1,.56-1.46l.67-1.39c.47-.93,1-1.84,1.48-2.77s1.16-1.75,1.78-2.62l.94-1.29c.34-.41.71-.8,1.06-1.21.73-.78,1.46-1.6,2.24-2.36A37.72,37.72,0,0,1,63.64,94.28a43,43,0,0,1,13,1.44,45.39,45.39,0,0,1,21,12.58,41.45,41.45,0,0,1,3.83,4.73A26.41,26.41,0,0,1,104.5,118.5Z"/><path class="cls-4" d="M108.5,117.5a22.32,22.32,0,0,1,3.43-3.64,32.74,32.74,0,0,1,4-3,37.21,37.21,0,0,1,19.55-5.75A36.25,36.25,0,0,1,146,106.64a37.3,37.3,0,0,1,17.43,11.25,38.94,38.94,0,0,1,9,17.61c-5.27-4.06-9.93-8-14.78-11.14-1.18-.84-2.44-1.52-3.62-2.27-.59-.38-1.25-.65-1.84-1s-1.21-.68-1.84-1a46.12,46.12,0,0,0-7.53-3,50.73,50.73,0,0,0-16.24-2A107.68,107.68,0,0,0,108.5,117.5Z"/><path class="cls-4" d="M107,116A127.79,127.79,0,0,0,93.28,98.11C88.37,93,82.9,89,76.89,87a22.15,22.15,0,0,0-2.28-.68c-.78-.16-1.55-.35-2.34-.5l-2.39-.32c-.8-.09-1.63,0-2.44-.13a46.07,46.07,0,0,0-10.2.89c-1.76.23-3.48.78-5.28,1.15-.9.17-1.76.51-2.66.75l-2.71.75c-1.78.61-3.6,1.19-5.46,1.76s-3.68,1.27-5.63,1.83A48.79,48.79,0,0,1,54.71,78c1-.39,1.94-.8,2.94-1.15L60.73,76a22.24,22.24,0,0,1,3.17-.64,24.87,24.87,0,0,1,3.25-.39c1.1-.06,2.2-.12,3.31-.1l3.35.23c1.11.15,2.21.4,3.31.6a11.6,11.6,0,0,1,1.64.42l1.62.48a29.32,29.32,0,0,1,3.14,1.25,25.43,25.43,0,0,1,3,1.52,27.31,27.31,0,0,1,2.8,1.81c.45.32.91.62,1.34,1s.84.71,1.26,1.06a41.18,41.18,0,0,1,8.23,9.73,47.56,47.56,0,0,1,5,11.21A40.09,40.09,0,0,1,107,116Z"/><path class="cls-4" d="M537,382a72.92,72.92,0,0,1-5.43-10.25c-1.57-3.52-2.94-7.12-4.17-10.76s-2.27-7.34-3.2-11.06c-.48-1.86-.87-3.74-1.29-5.62s-.73-3.77-1.06-5.66a167.8,167.8,0,0,1-1.24-46.1,152.34,152.34,0,0,1,11.92-44.81c.4-.88.76-1.78,1.18-2.65l1.3-2.61c.89-1.72,1.73-3.46,2.69-5.15,2-3.35,3.87-6.7,6.13-9.86,1.13-1.58,2.19-3.17,3.38-4.7s2.41-3,3.68-4.49c.63-.73,1.22-1.48,1.89-2.18l2-2.09c1.38-1.37,2.74-2.73,4.2-4-3.53,15.11-7.33,29-10,43.06l-1,5.24-.93,5.25c-.36,1.73-.6,3.49-.9,5.23l-.43,2.62c-.16.87-.31,1.73-.43,2.61-1.1,7-2,14-2.81,21-1.59,14-2.6,28.19-3.39,42.6l-.56,10.86-.47,11C537.7,366.83,537.44,374.25,537,382Z"/><path class="cls-4" d="M560,211a26.63,26.63,0,0,1,6.9-1.76,40,40,0,0,1,7.09-.33,47.23,47.23,0,0,1,14.06,2.72,51.92,51.92,0,0,1,23.64,17.17,55.46,55.46,0,0,1,11.08,40.73,68.33,68.33,0,0,1-1.35,6.84A47.94,47.94,0,0,1,619,283a64.2,64.2,0,0,1-3.14-6.17c-.53-1-1-2-1.46-3s-.85-2-1.35-2.92c-1.87-3.83-3.57-7.52-5.41-11a120.45,120.45,0,0,0-11.74-18.88,97,97,0,0,0-15.29-15.62c-3-2.42-6.11-4.86-9.54-7.2S564,213.52,560,211Z"/><path class="cls-4" d="M556.5,209.5c-2.11-.24-4.06-.51-6-.8l-5.55-.84c-3.58-.58-7-1.06-10.3-1.52s-6.43-.79-9.45-1a79.36,79.36,0,0,0-8.69-.1,59.4,59.4,0,0,0-8.23.94,72.74,72.74,0,0,0-8.38,2.28l-2.18.85c-.37.14-.76.26-1.13.42l-1.11.5c-.74.33-1.53.64-2.32,1l-2.34,1.14-1.23.56c-.4.2-.78.43-1.19.63-.83.42-1.64.86-2.53,1.27-1.7.87-3.4,1.83-5.4,2.68a31.51,31.51,0,0,1,1-6.14c.28-1,.63-1.94,1-2.92.17-.5.36-1,.56-1.46l.67-1.39c.47-.93,1-1.84,1.48-2.77s1.16-1.75,1.78-2.62l.94-1.29c.34-.41.71-.8,1.06-1.21.73-.78,1.46-1.6,2.24-2.36a37.72,37.72,0,0,1,24.41-10.06,43,43,0,0,1,13,1.44,45.39,45.39,0,0,1,21,12.58,41.45,41.45,0,0,1,3.83,4.73A26.41,26.41,0,0,1,556.5,209.5Z"/><path class="cls-4" d="M560.5,208.5a22.32,22.32,0,0,1,3.43-3.64,32.74,32.74,0,0,1,4-3,37.21,37.21,0,0,1,19.55-5.75A36.25,36.25,0,0,1,598,197.64a37.3,37.3,0,0,1,17.43,11.25,38.94,38.94,0,0,1,9,17.61c-5.27-4.06-9.93-8-14.78-11.14-1.18-.84-2.44-1.52-3.62-2.27-.59-.38-1.25-.65-1.84-1s-1.21-.68-1.84-1a46.12,46.12,0,0,0-7.53-3,50.73,50.73,0,0,0-16.24-2A107.68,107.68,0,0,0,560.5,208.5Z"/><path class="cls-4" d="M559,207a127.79,127.79,0,0,0-13.72-17.89C540.37,184,534.9,180,528.89,178a22.15,22.15,0,0,0-2.28-.68c-.78-.16-1.55-.35-2.34-.5l-2.39-.32c-.8-.09-1.63-.05-2.44-.13a46.07,46.07,0,0,0-10.2.89c-1.76.23-3.48.78-5.28,1.15-.9.17-1.76.51-2.66.75l-2.71.75c-1.78.61-3.6,1.19-5.46,1.76s-3.68,1.27-5.63,1.83A48.79,48.79,0,0,1,506.71,169c1-.39,1.94-.8,2.94-1.15l3.08-.87a22.24,22.24,0,0,1,3.17-.64,24.87,24.87,0,0,1,3.25-.39c1.1-.06,2.2-.12,3.31-.1l3.35.23c1.11.15,2.21.4,3.31.6a11.6,11.6,0,0,1,1.64.42l1.62.48a29.32,29.32,0,0,1,3.14,1.25,25.43,25.43,0,0,1,3,1.52,27.31,27.31,0,0,1,2.8,1.81c.45.32.91.62,1.34,1s.84.71,1.26,1.06a41.18,41.18,0,0,1,8.23,9.73,47.56,47.56,0,0,1,5,11.21A40.09,40.09,0,0,1,559,207Z"/><path class="cls-4" d="M21,310c-.81-6.36-1.33-12.37-1.88-18.33l-1.47-17.56c-1-11.53-1.92-22.81-3.18-34-.67-5.58-1.33-11.16-2.13-16.74-.17-1.4-.44-2.78-.62-4.18s-.38-2.8-.64-4.19-.44-2.8-.65-4.21-.5-2.79-.72-4.21C7.86,195.24,5.31,184,3.22,171.35c1.28,1,2.47,2,3.67,3.08l1.76,1.62c.58.55,1.09,1.14,1.64,1.71,1.1,1.14,2.13,2.33,3.19,3.52s1.94,2.47,2.93,3.72a92.7,92.7,0,0,1,5.3,7.88c.81,1.35,1.55,2.75,2.31,4.14l1.12,2.1c.36.71.68,1.43,1,2.14a114.93,114.93,0,0,1,10.13,36.39,125.4,125.4,0,0,1-1.44,37.51,108.2,108.2,0,0,1-5.12,18,88.21,88.21,0,0,1-3.81,8.64A53.37,53.37,0,0,1,21,310Z"/><path class="cls-4" d="M2.42,172.16c-3.22,2.45-6,4.59-8.65,6.74s-5,4.21-7.25,6.24A98.84,98.84,0,0,0-25,197.58,128.94,128.94,0,0,0-34.52,212c-1.6,2.69-3.15,5.56-4.88,8.57-.86,1.51-1.68,3.07-2.68,4.66a50,50,0,0,1-3.06,4.93,34.82,34.82,0,0,1-2.49-5.39,49.34,49.34,0,0,1-1.5-5.61,41.34,41.34,0,0,1-.49-11.61,42.78,42.78,0,0,1,8.84-22.28,41.1,41.1,0,0,1,19.87-14,36.41,36.41,0,0,1,11.77-1.75,31.5,31.5,0,0,1,5.88.64A20.9,20.9,0,0,1,2.42,172.16Z"/><path class="cls-4" d="M5.24,171a20.81,20.81,0,0,1,2.1-4.86,31.75,31.75,0,0,1,2.92-4.2,33.94,33.94,0,0,1,7.58-6.75,34.47,34.47,0,0,1,20.42-5.65A31.58,31.58,0,0,1,49.38,152a30.55,30.55,0,0,1,9.31,6.28,29.45,29.45,0,0,1,3.41,4.22c.49.75,1,1.5,1.38,2.27s.76,1.59,1.11,2.39A24.19,24.19,0,0,1,66.5,177.4c-1.8-.56-3.3-1.23-4.78-1.83-.77-.27-1.47-.58-2.18-.86-.36-.13-.69-.29-1-.43l-1-.37-2-.76c-.66-.22-1.31-.41-1.93-.63-.3-.11-.61-.21-.91-.33s-.61-.17-.92-.26L50,171.39c-2.33-.58-4.44-1-6.49-1.35s-4.06-.46-6.15-.58a112.29,112.29,0,0,0-14,.37l-8.38.63c-1.5.1-3,.22-4.64.3S7.07,170.93,5.24,171Z"/><path class="cls-4" d="M2,170.14a113.28,113.28,0,0,0-14.77-1.06,44.73,44.73,0,0,0-12.64,1.83,49,49,0,0,0-11.7,5.39c-3.95,2.36-7.85,5.32-12.48,8.35a29.23,29.23,0,0,1,6.74-14.82,29.57,29.57,0,0,1,14.3-9.47,28.86,28.86,0,0,1,17.24.23,28.64,28.64,0,0,1,7.49,3.72A24.44,24.44,0,0,1-.62,167,17.25,17.25,0,0,1,2,170.14Z"/><path class="cls-4" d="M3.22,168.93a30.44,30.44,0,0,1,1-9.82,37.08,37.08,0,0,1,3.84-9.3,32.78,32.78,0,0,1,6.68-8.14,28.55,28.55,0,0,1,9.58-5.53,26.89,26.89,0,0,1,11-1.32,18.63,18.63,0,0,1,2.7.35,20.16,20.16,0,0,1,2.61.57l2.53.76c.82.3,1.61.66,2.4,1A36.79,36.79,0,0,1,60.86,150c-1.64-.35-3.2-.76-4.7-1.22s-3-.78-4.49-1.21l-2.2-.51c-.73-.16-1.42-.41-2.15-.52-1.45-.24-2.84-.63-4.23-.77a38.74,38.74,0,0,0-8-.5,24.81,24.81,0,0,0-7.26,1.31A34.08,34.08,0,0,0,15,155,128.41,128.41,0,0,0,3.22,168.93Z"/><circle class="cls-9" cx="32" cy="14" r="2"/><circle class="cls-9" cx="84" cy="33" r="3"/><circle class="cls-10" cx="307.66" cy="77.04" r="3"/><circle class="cls-11" cx="347" cy="99.88" r="3"/><circle class="cls-9" cx="197" cy="33" r="3"/><circle class="cls-9" cx="275" cy="19" r="3"/><circle class="cls-12" cx="427" cy="88" r="3"/><circle class="cls-12" cx="338" cy="33" r="3"/><circle class="cls-9" cx="413.5" cy="23.5" r="4.5"/><circle class="cls-13" cx="101" cy="14" r="7.07"/><circle class="cls-13" cx="593.5" cy="22" r="4.6"/><circle class="cls-12" cx="9.83" cy="55" r="4.6"/><circle class="cls-13" cx="343" cy="19" r="1.41"/><circle class="cls-13" cx="248.67" cy="5.33" r="1.41"/><circle class="cls-13" cx="603" cy="85" r="1.41"/><circle class="cls-12" cx="157" cy="97" r="1.41"/><circle class="cls-11" cx="291.11" cy="110.27" r="1.41"/><circle class="cls-13" cx="230" cy="55" r="1.41"/><circle class="cls-9" cx="629" cy="71" r="1.41"/><circle class="cls-14" cx="545.9" cy="92.41" r="1.41"/><g id="Crab"><path class="cls-15" d="M460.78,331.65c0,4.69-7,5.75-15.68,5.75s-15.68-1.06-15.68-5.75,7-11.23,15.68-11.23S460.78,327,460.78,331.65Z"/><path class="cls-16" d="M457.29,329.31s8.38-2.4,7.18-9.59"/><path class="cls-15" d="M469.27,317.33a4.8,4.8,0,0,1-9.59,0,4.74,4.74,0,0,1,1.54-3.51l3.25,5.64,3.26-5.64A4.74,4.74,0,0,1,469.27,317.33Z"/><path class="cls-16" d="M435.71,329.82s-8.57,1.59-10.7-5.37"/><path class="cls-15" d="M419.65,324.44a4.79,4.79,0,0,0,8.58-4.27,4.73,4.73,0,0,0-2.94-2.46l-.4,6.5-5.43-3.6A4.75,4.75,0,0,0,419.65,324.44Z"/><path class="cls-17" d="M439.71,321.56a10.73,10.73,0,0,1-1.43-6"/><ellipse class="cls-15" cx="438.48" cy="313.7" rx="3.34" ry="1.45" transform="translate(85.43 721.17) rotate(-84.67)"/><path class="cls-17" d="M449.55,321.56a10.67,10.67,0,0,1-1.42-6"/><ellipse class="cls-15" cx="448.32" cy="313.7" rx="3.34" ry="1.45" transform="translate(94.36 730.97) rotate(-84.67)"/><polygon class="cls-15" points="458.7 331.95 462.07 333.61 463.06 338.12 460.77 335.02 457.6 333.57 458.7 331.95"/><polygon class="cls-15" points="456.62 332.2 461.23 334.86 462.06 340.28 459.27 336.74 454.93 334.39 456.62 332.2"/><polygon class="cls-15" points="431.33 332.55 428.08 334.97 427.91 339.94 429.73 336.21 432.81 334.05 431.33 332.55"/><polygon class="cls-15" points="434.61 333.33 430.24 336.37 429.87 341.84 432.35 338.07 436.49 335.38 434.61 333.33"/></g><path d="M403.15,80a25.62,25.62,0,0,1,2.42-4.53,20.67,20.67,0,0,1,3.39-4A11.26,11.26,0,0,1,411.21,70a6.58,6.58,0,0,1,2.81-.78,5.57,5.57,0,0,1,2.94.74,8.18,8.18,0,0,1,2.16,1.92l-1.49-.06A11.39,11.39,0,0,1,421.54,69a7.39,7.39,0,0,1,2.47-.49,6.35,6.35,0,0,1,2.45.5,9.25,9.25,0,0,1,3.67,2.92,14,14,0,0,1,2.19,3.93,20.3,20.3,0,0,0-2.87-3.3A9.3,9.3,0,0,0,426,70.43a5.21,5.21,0,0,0-3.71.27,10.82,10.82,0,0,0-3.18,2.44l-.73.79-.76-.85A8.07,8.07,0,0,0,416,71.63a3.65,3.65,0,0,0-1.91-.53A7.29,7.29,0,0,0,410,72.78a25.81,25.81,0,0,0-3.6,3.36C405.25,77.37,404.19,78.69,403.15,80Z"/><path d="M493.54,85.5a34.53,34.53,0,0,1,3.19-8,31.51,31.51,0,0,1,5.18-7.09,17.92,17.92,0,0,1,8-4.9,13.36,13.36,0,0,1,9.83,1.29l-3.5,1.34a18.42,18.42,0,0,1,5.38-7.75,18.22,18.22,0,0,1,8.44-3.87,25.81,25.81,0,0,1,8.81,0,29.7,29.7,0,0,1,8.17,2.51,53.7,53.7,0,0,0-8.29-.2A30.69,30.69,0,0,0,531,60.23a16.22,16.22,0,0,0-6.29,3.66,15.87,15.87,0,0,0-3.79,6l-1,2.61-2.51-1.27a11.18,11.18,0,0,0-3.15-1.07,9.32,9.32,0,0,0-3.24.09,16.23,16.23,0,0,0-6.43,3.24A45.34,45.34,0,0,0,498.83,79C497,81.05,495.28,83.24,493.54,85.5Z"/><path d="M392.06,71.32a2.89,2.89,0,0,0,1.77-1.43,6.5,6.5,0,0,0,.48-2.26,4.27,4.27,0,0,1,.31-1.31,1.54,1.54,0,0,1,1.35-.91,3.94,3.94,0,0,1,1.37.22,9,9,0,0,1,1.19.48l-.3,0a5.66,5.66,0,0,1,2.4,0,1.57,1.57,0,0,1,1.09,1,3.47,3.47,0,0,1,.16,1.23,6.58,6.58,0,0,0,.22,2.1A3.6,3.6,0,0,0,403.35,72a3.46,3.46,0,0,1-1.68-1.51,6,6,0,0,1-.54-2.24,2.73,2.73,0,0,0-.2-.94.69.69,0,0,0-.53-.41,6,6,0,0,0-2,.14l-.15,0-.16-.06a5.67,5.67,0,0,0-2.09-.64.63.63,0,0,0-.6.35,4.28,4.28,0,0,0-.31,1,6,6,0,0,1-.84,2.4A2.91,2.91,0,0,1,392.06,71.32Z"/><path d="M429.54,67.56a17.6,17.6,0,0,1,7-.85,18.23,18.23,0,0,1,3.56.64,17.71,17.71,0,0,1,3.39,1.44,14.65,14.65,0,0,1,3,2.2,16.3,16.3,0,0,1,2.44,2.81A23.13,23.13,0,0,1,452,80.44l-2.84-.07A25.93,25.93,0,0,1,451.68,75a18.62,18.62,0,0,1,3.88-4.57,13.83,13.83,0,0,1,5.26-2.84,10.86,10.86,0,0,1,5.79-.12,13.32,13.32,0,0,0-5.3,1.41,14.88,14.88,0,0,0-4.21,3.19,21.08,21.08,0,0,0-3,4.31,32.72,32.72,0,0,0-2.1,4.94l-1.49,4.36-1.35-4.43a23.08,23.08,0,0,0-2.61-5.86,15.68,15.68,0,0,0-4.33-4.56,14.71,14.71,0,0,0-2.8-1.57,16.88,16.88,0,0,0-3.1-1A24.24,24.24,0,0,0,429.54,67.56Z"/></svg>
