<svg id="Layer_1" data-name="Layer 1" xmlns="http://www.w3.org/2000/svg" viewBox="0 0 30 120"><defs><style>.cls-1,.cls-2{fill:#f36;}.cls-2{fill-rule:evenodd;}</style></defs><title>Artboard 1</title><path class="cls-1" d="M15,3.11c3.87,0,4.33,0,5.86.09a7.86,7.86,0,0,1,2.69.5,4.42,4.42,0,0,1,1.67,1.08A4.42,4.42,0,0,1,26.3,6.45a7.86,7.86,0,0,1,.5,2.69c.07,1.53.09,2,.09,5.86s0,4.33-.09,5.86a7.86,7.86,0,0,1-.5,2.69,4.74,4.74,0,0,1-2.75,2.75,7.86,7.86,0,0,1-2.69.5c-1.53.07-2,.09-5.86.09s-4.33,0-5.86-.09a7.86,7.86,0,0,1-2.69-.5,4.42,4.42,0,0,1-1.67-1.08A4.42,4.42,0,0,1,3.7,23.55a7.86,7.86,0,0,1-.5-2.69c-.07-1.53-.09-2-.09-5.86s0-4.33.09-5.86a7.86,7.86,0,0,1,.5-2.69A4.42,4.42,0,0,1,4.78,4.78,4.42,4.42,0,0,1,6.45,3.7a7.86,7.86,0,0,1,2.69-.5c1.53-.07,2-.09,5.86-.09M15,.5c-3.94,0-4.43,0-6,.09a10.61,10.61,0,0,0-3.52.67A7.38,7.38,0,0,0,1.26,5.5,10.61,10.61,0,0,0,.59,9c-.07,1.55-.09,2-.09,6s0,4.43.09,6a10.61,10.61,0,0,0,.67,3.52A7.38,7.38,0,0,0,5.5,28.74,10.61,10.61,0,0,0,9,29.41c1.55.07,2,.09,6,.09s4.43,0,6-.09a10.61,10.61,0,0,0,3.52-.67,7.38,7.38,0,0,0,4.24-4.24A10.61,10.61,0,0,0,29.41,21c.07-1.55.09-2,.09-6s0-4.43-.09-6a10.61,10.61,0,0,0-.67-3.52A7.38,7.38,0,0,0,24.5,1.26,10.61,10.61,0,0,0,21,.59c-1.55-.07-2-.09-6-.09Z"/><path class="cls-1" d="M15,7.55A7.45,7.45,0,1,0,22.45,15,7.46,7.46,0,0,0,15,7.55Zm0,12.28A4.83,4.83,0,1,1,19.83,15,4.83,4.83,0,0,1,15,19.83Z"/><circle class="cls-1" cx="22.74" cy="7.26" r="1.74"/><path class="cls-1" d="M0,52.14l2.53,4.38h0a3,3,0,0,0,2.71,1.67H22.06l-3.49-6Z"/><path class="cls-1" d="M30,52.17a3.06,3.06,0,0,0-.48-1.64L19.66,33.4A3,3,0,0,0,17,31.79H11.77L27,58.16,29.4,54A3.08,3.08,0,0,0,30,52.17Z"/><polygon class="cls-1" points="16.09 47.84 9.29 36.06 2.48 47.84 16.09 47.84"/><path class="cls-2" d="M15,60.5a14.87,14.87,0,0,0-4.69,29c.74.14,1-.32,1-.71s0-1.29,0-2.53c-4.14.9-5-2-5-2a3.92,3.92,0,0,0-1.65-2.18c-1.35-.92.1-.9.1-.9A3.1,3.1,0,0,1,7,82.69a3.17,3.17,0,0,0,4.33,1.24,3.15,3.15,0,0,1,.94-2c-3.3-.38-6.77-1.65-6.77-7.35A5.76,5.76,0,0,1,7,70.6a5.36,5.36,0,0,1,.15-3.93s1.24-.4,4.08,1.52a14.13,14.13,0,0,1,7.45,0c2.84-1.92,4.08-1.52,4.08-1.52A5.36,5.36,0,0,1,23,70.6a5.76,5.76,0,0,1,1.53,4c0,5.71-3.48,7-6.79,7.34a3.55,3.55,0,0,1,1,2.75c0,2,0,3.59,0,4.08s.27.86,1,.71A14.87,14.87,0,0,0,15,60.5Z"/><path class="cls-1" d="M0,96.49v17H30v-17Zm27.8,1L15,105.6,2.19,97.49Zm1.2,15H1V97.93l14,8.86,14-8.88Z"/></svg>